<?xml version="1.0" encoding="utf-8"?>
<!-- Generator: Adobe Illustrator 16.0.2, SVG Export Plug-In . SVG Version: 6.00 Build 0)  -->
<!DOCTYPE svg PUBLIC "-//W3C//DTD SVG 1.1//EN" "http://www.w3.org/Graphics/SVG/1.1/DTD/svg11.dtd">
<svg version="1.1" id="Layer_1" xmlns="http://www.w3.org/2000/svg" xmlns:xlink="http://www.w3.org/1999/xlink" x="0px" y="0px"
	 width="198.352px" height="90.078px" viewBox="-44.251 0 198.352 90.078" enable-background="new -44.251 0 198.352 90.078"
	 xml:space="preserve">
<g>
	<g>
		<path fill="#FFFFFF" d="M-3.414,41.561c-2.516,0-4.556,2.039-4.556,4.555s2.04,4.556,4.556,4.556s4.555-2.04,4.555-4.556
			S-0.898,41.561-3.414,41.561z M-3.414,49.152c-1.678,0-3.037-1.359-3.037-3.037c0-1.677,1.359-3.036,3.037-3.036
			c1.677,0,3.036,1.359,3.036,3.036C-0.378,47.793-1.737,49.152-3.414,49.152z"/>
		<circle fill="#FFFFFF" cx="-3.414" cy="46.116" r="1.519"/>
		<path fill="#FFFFFF" d="M-2.918,19.144c-14.645,0-26.516,11.871-26.516,26.514c0,8.044,3.587,14.963,9.242,19.826l-9.584,6.055
			h25.008c0.611,0,1.227,0.354,1.85,0.354c14.643,0,26.514-11.731,26.514-26.375S11.725,19.144-2.918,19.144z M14.5,39.363
			c0,0.933-0.658,1.176-1.591,1.176H5.592c-0.933,0-1.688-0.567-1.688-1.5s0.756-1.5,1.688-1.5h2.938
			c-2.649-4-7.007-6.124-11.942-6.124c-8.083,0-14.634,6.586-14.634,14.667c0,8.082,6.551,14.65,14.634,14.65
			c8.081,0,14.634-6.544,14.634-14.626c0-0.933,0.756-1.683,1.688-1.683s1.688,0.756,1.688,1.689
			c0,9.947-8.064,18.013-18.011,18.013c-9.947,0-18.011-8.064-18.011-18.011c0-9.947,7.703-18.011,17.65-18.011
			c6.036,0,11.273,2.977,14.273,7.537v-3.033c0-0.933,1.067-1.688,2-1.688c0.934,0,2,0.755,2,1.688V39.363z M2.49,51.64
			l-0.402,0.401c-0.604,0.604-2.115-0.342-2.477-0.582c-0.459,0.258-0.956,0.459-1.48,0.593l0.106-0.333c0,0-0.286,1.82-1.442,1.82
			h-0.396c-0.881,0-1.371-1.512-1.456-1.859c-0.519-0.146-1.009-0.188-1.461-0.457l0.079,0.169c0,0-1.707,1.384-2.523,0.565
			l-0.361-0.278c-0.621-0.621,0.379-2.256,0.58-2.569c-0.242-0.427-0.93-0.878-1.063-1.359c-0.339-0.082-2.692-0.568-2.692-1.452
			v-0.396c0-1.02,2.266-1.363,2.682-1.429c0.133-0.486,0.572-0.946,0.813-1.375c-0.19-0.289-1.108-1.941-0.481-2.568l0.442-0.321
			c0.72-0.719,2.224,0.299,2.567,0.555c0.436-0.25,0.918-0.688,1.412-0.825c0.109-0.433,0.613-2.398,1.463-2.398h0.396
			c0.99,0,1.342,1.909,1.422,2.387c0.502,0.135,0.977,0.453,1.418,0.704c0.373-0.244,1.91-1.125,2.513-0.522l0.361,0.411
			c0.704,0.704-0.272,2.146-0.556,2.526c0.248,0.438-0.144,0.913-0.007,1.408C2.072,44.471,3.5,44.782,3.5,45.901v0.396
			c0,0.843-1.105,1.329-1.557,1.444c-0.137,0.494-0.041,0.962-0.291,1.398C1.689,49.186,3.296,50.834,2.49,51.64z"/>
	</g>
	<g>
		<path fill="#FFFFFF" d="M53.617,39.457c1.255,1.049,1.884,2.667,1.884,4.851s-0.641,3.784-1.922,4.8
			c-1.282,1.016-3.248,1.521-5.896,1.521h-3.2v5.291h-3.045V37.882h6.193C50.366,37.882,52.361,38.407,53.617,39.457z M51.462,46.9
			c0.61-0.645,0.916-1.59,0.916-2.838c0-1.247-0.387-2.129-1.161-2.645c-0.774-0.516-1.987-0.774-3.638-0.774h-3.097v7.226h3.535
			C49.704,47.869,50.852,47.546,51.462,46.9z"/>
		<path fill="#FFFFFF" d="M65.874,44.901c-1.429,0-2.503,0.465-3.226,1.394c-0.723,0.929-1.084,2.176-1.084,3.741v5.884h-2.89
			V42.191h2.89v2.761c0.465-0.86,1.097-1.565,1.896-2.116c0.801-0.551,1.647-0.834,2.542-0.852l0.026,2.916
			C65.977,44.901,65.926,44.901,65.874,44.901z"/>
		<path fill="#FFFFFF" d="M80.143,54.074c-1.376,1.367-3.096,2.052-5.16,2.052s-3.785-0.685-5.16-2.052
			c-1.377-1.367-2.064-3.04-2.064-5.019c0-1.978,0.688-3.651,2.064-5.019c1.375-1.368,3.096-2.051,5.16-2.051
			s3.784,0.684,5.16,2.051c1.377,1.368,2.064,3.042,2.064,5.019C82.207,51.034,81.52,52.707,80.143,54.074z M71.873,52.294
			c0.816,0.835,1.854,1.251,3.109,1.251s2.292-0.416,3.109-1.251c0.816-0.834,1.226-1.913,1.226-3.238s-0.409-2.403-1.226-3.239
			c-0.817-0.833-1.854-1.251-3.109-1.251s-2.293,0.417-3.109,1.251c-0.817,0.836-1.226,1.914-1.226,3.239
			S71.056,51.46,71.873,52.294z"/>
		<path fill="#FFFFFF" d="M88.375,48.488v7.432h-2.891V42.191h2.891v2.503c0.465-0.843,1.105-1.505,1.922-1.987
			c0.816-0.481,1.699-0.722,2.645-0.722c1.549,0,2.801,0.473,3.756,1.419c0.954,0.946,1.432,2.314,1.432,4.104v8.412h-2.891v-7.535
			c0-2.529-1.049-3.793-3.148-3.793c-0.997,0-1.866,0.332-2.605,0.994C88.744,46.247,88.375,47.215,88.375,48.488z"/>
		<path fill="#FFFFFF" d="M113.637,54.074c-1.377,1.367-3.096,2.052-5.16,2.052s-3.785-0.685-5.161-2.052s-2.064-3.04-2.064-5.019
			c0-1.978,0.688-3.651,2.064-5.019s3.097-2.051,5.161-2.051s3.783,0.684,5.16,2.051s2.064,3.042,2.064,5.019
			C115.701,51.034,115.014,52.707,113.637,54.074z M105.367,52.294c0.816,0.835,1.854,1.251,3.109,1.251
			c1.255,0,2.291-0.416,3.109-1.251c0.816-0.834,1.225-1.913,1.225-3.238s-0.408-2.403-1.225-3.239
			c-0.818-0.833-1.854-1.251-3.109-1.251c-1.256,0-2.293,0.417-3.109,1.251c-0.818,0.836-1.227,1.914-1.227,3.239
			S104.549,51.46,105.367,52.294z"/>
		<path fill="#FFFFFF" d="M125.223,55.92h-3.303l-4.748-13.729h2.993l3.406,10.373l3.406-10.373h2.993l3.406,10.373l3.406-10.373
			h2.993l-4.748,13.729h-3.303l-3.251-9.393L125.223,55.92z"/>
	</g>
</g>
</svg>
